# xmcd
#
# Track frame offsets:
#	150
#	15669
#	31729
#	49124
#	67090
#	78531
#	97946
#	109889
#	124979
#	140443
#
# Disc length: 2030 seconds
#
# Revision: 0
# Processed by: cddbd v1.5.2PL0 Copyright (c) Steve Scherf et al.
# Submitted via: EZCDAudioConverter 2.1.7.1
#
DISCID=8307ec0a
DTITLE=Erica Sunshine Lee - I'm Still Me
DYEAR=2012
DGENRE=Country
TTITLE0=Erica Sunshine Lee - Put Some South In Your Mouth
TTITLE1=Erica Sunshine Lee - Ho In Rio (radio version)
TTITLE2=Erica Sunshine Lee - Without You I'm Still Me
TTITLE3=Erica Sunshine Lee - You Break My Heart
TTITLE4=Erica Sunshine Lee - Drinking And Driving Me Crazy
TTITLE5=Erica Sunshine Lee and Wayne Mills - Reason To Leave (Featuring Wayne Mi
TTITLE5=lls)
TTITLE6=Erica Sunshine Lee - Pop With A Twang
TTITLE7=Erica Sunshine Lee - You Make Me Wanna Believe
TTITLE8=Erica Sunshine Lee - I'm Just Your Woman
TTITLE9=Erica Sunshine Lee - Whipped Cream
EXTD=
EXTT0=
EXTT1=
EXTT2=
EXTT3=
EXTT4=
EXTT5=
EXTT6=
EXTT7=
EXTT8=
EXTT9=
PLAYORDER=
